# Blender v2.78 (sub 0) OBJ File: 'Water_Dispenser.blend'
# www.blender.org
mtllib Water_Dispenser.mtl
o Cube.146_Cube.153
v -0.615124 0.004061 0.654200
v -0.615124 3.102687 0.654200
v -0.615124 0.004061 -0.609002
v -0.615124 3.102687 -0.609002
v 0.648078 0.004061 0.654200
v 0.648078 3.102687 0.654200
v 0.648078 0.004061 -0.609002
v 0.648078 3.102687 -0.609002
v -0.615124 1.477761 0.654200
v -0.615124 2.510637 0.654200
v -0.615124 2.510637 -0.609002
v -0.615124 1.477761 -0.609002
v 0.648078 2.510637 -0.609002
v 0.648078 1.477761 -0.609002
v 0.648078 2.510637 0.654200
v 0.648078 1.477761 0.654200
v 0.404888 0.004061 -0.609002
v -0.371934 0.004061 -0.609002
v -0.371934 3.102687 -0.609002
v 0.404888 3.102687 -0.609002
v -0.371934 0.004061 0.654200
v 0.404888 0.004061 0.654200
v 0.404888 3.102687 0.654200
v -0.371934 3.102687 0.654200
v 0.404888 1.477761 0.654200
v -0.371934 1.477761 0.654200
v 0.404888 2.510637 0.654200
v -0.371934 2.510637 0.654200
v -0.371934 1.477761 -0.609002
v 0.404888 1.477761 -0.609002
v -0.371934 2.510637 -0.609002
v 0.404888 2.510637 -0.609002
v 0.404888 1.477761 0.522102
v -0.371934 1.477761 0.522102
v 0.404888 2.510637 0.522102
v -0.371934 2.510637 0.522102
v 0.404888 1.477761 0.390004
v -0.371934 1.477761 0.390004
v 0.404888 2.510637 0.390004
v -0.371934 2.510637 0.390004
v 0.064535 0.004061 -0.609002
v -0.031581 0.004061 -0.609002
v -0.031581 3.102687 -0.609002
v 0.064535 3.102687 -0.609002
v -0.031581 0.004061 0.654200
v 0.064535 0.004061 0.654200
v 0.064535 3.102687 0.654200
v -0.031581 3.102687 0.654200
v 0.064535 1.477761 0.654200
v -0.031581 1.477761 0.654200
v 0.064535 2.510637 0.654200
v -0.031581 2.510637 0.654200
v -0.031581 1.477761 -0.609002
v 0.064535 1.477761 -0.609002
v -0.031581 2.510637 -0.609002
v 0.064535 2.510637 -0.609002
v 0.064535 2.510637 0.522102
v -0.031581 2.510637 0.522102
v 0.064535 1.477761 0.390004
v -0.031581 1.477761 0.390004
v 0.064535 2.510637 0.390004
v -0.031581 2.510637 0.390004
v -0.615124 2.179154 0.654200
v -0.615124 2.283743 0.654200
v -0.615124 2.283743 -0.609002
v -0.615124 2.179154 -0.609002
v 0.648078 2.283743 -0.609002
v 0.648078 2.179154 -0.609002
v 0.648078 2.283743 0.654200
v 0.648078 2.179154 0.654200
v -0.371934 2.283743 -0.609002
v -0.371934 2.179154 -0.609002
v 0.404888 2.283743 -0.609002
v 0.404888 2.179154 -0.609002
v 0.404888 2.283743 0.654200
v 0.404888 2.179154 0.654200
v -0.371934 2.283743 0.654200
v -0.371934 2.179154 0.654200
v 0.404888 2.283743 0.522102
v 0.404888 2.179154 0.522102
v -0.371934 2.283743 0.522102
v -0.371934 2.179154 0.522102
v 0.404888 2.283743 0.390004
v 0.404888 2.179154 0.390004
v -0.371934 2.283743 0.390004
v -0.371934 2.179154 0.390004
v 0.064535 2.283743 0.390004
v 0.064535 2.179154 0.390004
v -0.031581 2.283743 0.390004
v -0.031581 2.179154 0.390004
v -0.031581 2.283743 -0.609002
v -0.031581 2.179154 -0.609002
v 0.064535 2.283743 -0.609002
v 0.064535 2.179154 -0.609002
v 0.064535 2.283743 0.491552
v 0.064535 2.179154 0.491552
v -0.031581 2.283743 0.491552
v -0.031581 2.179154 0.491552
v 0.064535 2.283743 0.565773
v 0.064535 2.179154 0.565773
v -0.031581 2.283743 0.565773
v -0.031581 2.179154 0.565773
v 0.049602 2.128251 0.503084
v -0.016647 2.128251 0.503084
v 0.049602 2.128251 0.554241
v -0.016647 2.128251 0.554241
v 0.046283 2.283743 0.505647
v -0.013328 2.283743 0.505647
v 0.046283 2.283743 0.551678
v -0.013328 2.283743 0.551678
v 0.046283 2.333631 0.500976
v -0.013328 2.333631 0.500976
v 0.046283 2.333631 0.524269
v -0.013328 2.333631 0.524269
v -0.027751 1.477761 0.637284
v -0.340981 1.477761 0.637284
v -0.340981 1.477761 0.522102
v 0.373935 1.477761 0.637284
v 0.373935 1.477761 0.522102
v -0.027751 1.477761 0.406920
v -0.340981 1.477761 0.406920
v 0.373935 1.477761 0.406920
v 0.060706 1.477761 0.637284
v 0.060706 1.477761 0.406920
v -0.027751 1.467791 0.637284
v -0.340981 1.467791 0.637284
v -0.027751 1.467791 0.522102
v -0.340981 1.467791 0.522102
v 0.373935 1.467791 0.637284
v 0.373935 1.467791 0.522102
v -0.027751 1.467791 0.406920
v -0.340981 1.467791 0.406920
v 0.373935 1.467791 0.406920
v 0.060706 1.467791 0.637284
v 0.060706 1.467791 0.522102
v 0.060706 1.467791 0.406920
vn -1.0000 0.0000 0.0000
vn 0.0000 0.0000 -1.0000
vn 1.0000 0.0000 0.0000
vn 0.0000 0.0000 1.0000
vn -0.0000 -1.0000 0.0000
vn 0.0000 1.0000 0.0000
vn -0.9596 -0.2815 0.0000
vn 0.0000 -0.2209 0.9753
vn 0.9596 -0.2815 0.0000
vn 0.0000 -0.2209 -0.9753
vn 0.0000 0.4815 0.8764
vn 0.0000 -0.0932 -0.9956
usemtl Water_Despenser
s off
f 10//1 2//1 4//1 11//1
f 32//2 20//2 8//2 13//2
f 13//3 8//3 6//3 15//3
f 28//4 24//4 2//4 10//4
f 17//5 7//5 5//5 22//5
f 19//6 4//6 2//6 24//6
f 21//4 26//4 9//4 1//4
f 77//4 28//4 10//4 64//4
f 7//3 14//3 16//3 5//3
f 67//3 13//3 15//3 69//3
f 17//2 30//2 14//2 7//2
f 73//2 32//2 13//2 67//2
f 1//1 9//1 12//1 3//1
f 64//1 10//1 11//1 65//1
f 65//2 11//2 31//2 71//2
f 93//2 56//2 32//2 73//2
f 3//2 12//2 29//2 18//2
f 41//2 54//2 30//2 17//2
f 69//4 15//4 27//4 75//4
f 26//6 50//6 115//6 116//6
f 5//4 16//4 25//4 22//4
f 45//4 50//4 26//4 21//4
f 8//6 20//6 23//6 6//6
f 43//6 19//6 24//6 48//6
f 3//5 18//5 21//5 1//5
f 41//5 17//5 22//5 46//5
f 15//4 6//4 23//4 27//4
f 52//4 48//4 24//4 28//4
f 11//2 4//2 19//2 31//2
f 56//2 44//2 20//2 32//2
f 79//1 35//1 39//1 83//1
f 75//1 27//1 35//1 79//1
f 78//3 26//3 34//3 82//3
f 52//5 28//5 36//5 58//5
f 89//4 62//4 40//4 85//4
f 25//6 33//6 119//6 118//6
f 82//3 34//3 38//3 86//3
f 58//5 36//5 40//5 62//5
f 35//5 57//5 61//5 39//5
f 57//5 58//5 62//5 61//5
f 38//6 34//6 117//6 121//6
f 49//6 25//6 118//6 123//6
f 83//4 39//4 61//4 87//4
f 87//4 61//4 62//4 89//4
f 27//5 51//5 57//5 35//5
f 51//5 52//5 58//5 57//5
f 31//2 19//2 43//2 55//2
f 55//2 43//2 44//2 56//2
f 27//4 23//4 47//4 51//4
f 51//4 47//4 48//4 52//4
f 18//5 42//5 45//5 21//5
f 42//5 41//5 46//5 45//5
f 20//6 44//6 47//6 23//6
f 44//6 43//6 48//6 47//6
f 22//4 25//4 49//4 46//4
f 46//4 49//4 50//4 45//4
f 59//6 60//6 120//6 124//6
f 33//6 37//6 122//6 119//6
f 18//2 29//2 53//2 42//2
f 42//2 53//2 54//2 41//2
f 71//2 31//2 55//2 91//2
f 91//2 55//2 56//2 93//2
f 53//2 92//2 94//2 54//2
f 92//2 91//2 93//2 94//2
f 29//2 72//2 92//2 53//2
f 72//2 71//2 91//2 92//2
f 59//4 88//4 90//4 60//4
f 37//4 84//4 88//4 59//4
f 84//4 83//4 87//4 88//4
f 36//3 81//3 85//3 40//3
f 81//3 82//3 86//3 85//3
f 60//4 90//4 86//4 38//4
f 90//4 89//4 85//4 86//4
f 28//3 77//3 81//3 36//3
f 77//3 78//3 82//3 81//3
f 25//1 76//1 80//1 33//1
f 76//1 75//1 79//1 80//1
f 33//1 80//1 84//1 37//1
f 80//1 79//1 83//1 84//1
f 16//4 70//4 76//4 25//4
f 70//4 69//4 75//4 76//4
f 54//2 94//2 74//2 30//2
f 94//2 93//2 73//2 74//2
f 12//2 66//2 72//2 29//2
f 66//2 65//2 71//2 72//2
f 9//1 63//1 66//1 12//1
f 63//1 64//1 65//1 66//1
f 30//2 74//2 68//2 14//2
f 74//2 73//2 67//2 68//2
f 14//3 68//3 70//3 16//3
f 68//3 67//3 69//3 70//3
f 26//4 78//4 63//4 9//4
f 78//4 77//4 64//4 63//4
f 118//1 119//1 130//1 129//1
f 124//4 120//4 131//4 136//4
f 119//1 122//1 133//1 130//1
f 115//2 123//2 134//2 125//2
f 122//4 124//4 136//4 133//4
f 120//4 121//4 132//4 131//4
f 60//6 38//6 121//6 120//6
f 50//6 49//6 123//6 115//6
f 34//6 26//6 116//6 117//6
f 37//6 59//6 124//6 122//6
f 121//3 117//3 128//3 132//3
f 117//3 116//3 126//3 128//3
f 116//2 115//2 125//2 126//2
f 123//2 118//2 129//2 134//2
usemtl Black
f 87//6 89//6 97//6 95//6
f 95//6 97//6 108//6 107//6
f 89//1 90//1 98//1 97//1
f 88//3 87//3 95//3 96//3
f 90//5 88//5 96//5 98//5
f 100//4 99//4 101//4 102//4
f 97//1 98//1 102//1 101//1
f 102//7 98//7 104//7 106//7
f 96//3 95//3 99//3 100//3
f 104//5 103//5 105//5 106//5
f 100//8 102//8 106//8 105//8
f 96//9 100//9 105//9 103//9
f 98//10 96//10 103//10 104//10
f 109//3 107//3 111//3 113//3
f 97//6 101//6 110//6 108//6
f 99//6 95//6 107//6 109//6
f 101//6 99//6 109//6 110//6
f 111//6 112//6 114//6 113//6
f 110//11 109//11 113//11 114//11
f 108//1 110//1 114//1 112//1
f 107//12 108//12 112//12 111//12
usemtl Water_Despenser_1
f 134//6 129//6 130//6 135//6
f 135//6 130//6 133//6 136//6
f 128//6 127//6 131//6 132//6
f 127//6 135//6 136//6 131//6
f 126//6 125//6 127//6 128//6
f 125//6 134//6 135//6 127//6
o Cylinder.027_Cylinder.028
v 0.016477 3.098206 -0.434474
v 0.016477 4.705243 -0.479497
v 0.373831 3.098206 -0.262381
v 0.409032 4.705243 -0.290453
v 0.462090 3.098206 0.124307
v 0.505985 4.705243 0.134326
v 0.214794 3.098206 0.434407
v 0.234329 4.705243 0.474972
v -0.181839 3.098206 0.434407
v -0.201374 4.705243 0.474972
v -0.429136 3.098206 0.124307
v -0.473030 4.705243 0.134326
v -0.340877 3.098206 -0.262381
v -0.376077 4.705243 -0.290453
v 0.016477 3.848192 -0.594080
v 0.016477 4.002330 -0.594080
v 0.498616 4.002330 -0.361894
v 0.498616 3.848192 -0.361894
v 0.617695 4.002330 0.159823
v 0.617695 3.848192 0.159823
v 0.284044 4.002330 0.578207
v 0.284044 3.848192 0.578207
v -0.251090 4.002330 0.578207
v -0.251090 3.848192 0.578207
v -0.584740 4.002330 0.159823
v -0.584740 3.848192 0.159823
v -0.465662 4.002330 -0.361894
v -0.465662 3.848192 -0.361894
v 0.016477 4.302357 -0.594080
v 0.016477 4.452289 -0.594080
v 0.498616 4.452289 -0.361894
v 0.498616 4.302358 -0.361894
v 0.617695 4.452289 0.159823
v 0.617695 4.302358 0.159823
v 0.284044 4.452289 0.578207
v 0.284044 4.302358 0.578207
v -0.251090 4.452289 0.578207
v -0.251090 4.302358 0.578207
v -0.584740 4.452289 0.159823
v -0.584740 4.302358 0.159823
v -0.465662 4.452289 -0.361894
v -0.465662 4.302358 -0.361894
v 0.498616 3.540799 -0.361894
v 0.498616 3.405599 -0.361894
v 0.617695 3.540799 0.159823
v 0.617695 3.405599 0.159823
v 0.284044 3.540799 0.578207
v 0.284044 3.405599 0.578207
v -0.251090 3.540799 0.578207
v -0.251090 3.405599 0.578207
v -0.584740 3.540799 0.159823
v -0.584740 3.405599 0.159823
v -0.465662 3.540799 -0.361894
v -0.465662 3.405599 -0.361894
v 0.016477 3.405599 -0.594080
v 0.016477 3.540799 -0.594080
v 0.498616 3.251902 -0.361894
v 0.617695 3.251902 0.159823
v 0.284044 3.251902 0.578208
v -0.251090 3.251902 0.578207
v -0.584740 3.251902 0.159823
v -0.465662 3.251902 -0.361894
v 0.016477 3.251902 -0.594080
v 0.016477 4.602303 -0.594080
v 0.498616 4.602303 -0.361894
v 0.617695 4.602303 0.159823
v 0.284044 4.602303 0.578208
v -0.251090 4.602303 0.578207
v -0.584740 4.602303 0.159823
v -0.465662 4.602303 -0.361894
v 0.539861 3.525386 -0.394785
v 0.539861 3.421012 -0.394785
v 0.669126 3.525386 0.171562
v 0.669126 3.421012 0.171562
v 0.306933 3.525386 0.625737
v 0.306933 3.421012 0.625737
v -0.273978 3.525386 0.625737
v -0.273978 3.421012 0.625737
v -0.636171 3.525386 0.171562
v -0.636171 3.421012 0.171562
v -0.506906 3.525386 -0.394785
v -0.506906 3.421012 -0.394785
v 0.016477 3.421012 -0.646833
v 0.016477 3.525386 -0.646833
v 0.016477 3.857722 -0.657475
v 0.016477 3.992800 -0.657475
v 0.548181 3.992800 -0.401420
v 0.548181 3.857722 -0.401420
v 0.679501 3.992800 0.173930
v 0.679501 3.857722 0.173930
v 0.311550 3.992800 0.635325
v 0.311550 3.857722 0.635325
v -0.278596 3.992800 0.635325
v -0.278596 3.857722 0.635325
v -0.646546 3.992800 0.173930
v -0.646546 3.857722 0.173930
v -0.515226 3.992800 -0.401420
v -0.515226 3.857722 -0.401420
v 0.016477 4.312858 -0.644485
v 0.016477 4.441788 -0.644485
v 0.538024 4.441788 -0.393321
v 0.538024 4.312858 -0.393321
v 0.666836 4.441788 0.171039
v 0.666836 4.312858 0.171039
v 0.305914 4.441788 0.623621
v 0.305914 4.312858 0.623621
v -0.272959 4.441788 0.623621
v -0.272959 4.312858 0.623621
v -0.633881 4.441788 0.171039
v -0.633881 4.312858 0.171039
v -0.505070 4.441788 -0.393321
v -0.505070 4.312858 -0.393321
vn 0.3064 0.7081 -0.6362
vn 0.6884 0.7081 -0.1571
vn 0.5520 0.7081 0.4402
vn -0.0000 0.7081 0.7061
vn -0.5520 0.7081 0.4402
vn 0.0000 1.0000 0.0000
vn -0.6884 0.7081 -0.1571
vn -0.3064 0.7081 -0.6362
vn 0.0000 -1.0000 -0.0000
vn -0.4339 -0.0000 -0.9010
vn 0.1287 0.9864 0.1026
vn -0.9749 -0.0000 -0.2225
vn -0.0714 0.9864 -0.1483
vn -0.7818 -0.0000 0.6235
vn 0.1287 -0.9864 0.1026
vn 0.0000 -0.0000 1.0000
vn -0.0714 -0.9864 -0.1483
vn 0.7818 0.0000 0.6235
vn 0.0000 0.9864 0.1646
vn 0.9749 -0.0000 -0.2225
vn 0.0000 -0.9864 0.1646
vn 0.4339 -0.0000 -0.9010
vn 0.0714 0.9864 -0.1483
vn -0.2196 0.9743 -0.0501
vn 0.2196 -0.9743 -0.0501
vn -0.2196 -0.9743 -0.0501
vn 0.1761 0.9743 0.1405
vn -0.0977 0.9743 -0.2030
vn 0.1761 -0.9743 0.1405
vn -0.0977 -0.9743 -0.2030
vn -0.1338 -0.9512 -0.2779
vn 0.2412 -0.9512 0.1923
vn -0.3007 0.9512 -0.0686
vn 0.3007 0.9512 -0.0686
vn -0.3007 -0.9512 -0.0686
vn 0.3007 -0.9512 -0.0686
vn -0.2412 0.9512 0.1923
vn -0.3168 -0.6832 -0.6579
vn -0.7119 -0.6832 -0.1625
vn -0.5709 -0.6832 0.4553
vn 0.0000 -0.6832 0.7302
vn 0.5709 -0.6832 0.4553
vn 0.7119 -0.6832 -0.1625
vn 0.3168 -0.6832 -0.6579
vn 0.2412 0.9512 0.1923
vn -0.1338 0.9512 -0.2779
vn 0.0000 -0.9512 0.3085
vn 0.0000 0.9512 0.3085
vn 0.1338 -0.9512 -0.2779
vn -0.2412 -0.9512 0.1923
vn 0.1338 0.9512 -0.2779
vn -0.1604 -0.9864 -0.0366
vn 0.1604 -0.9864 -0.0366
vn -0.1604 0.9864 -0.0366
vn 0.1604 0.9864 -0.0366
vn -0.1287 -0.9864 0.1026
vn 0.0714 -0.9864 -0.1483
vn -0.1287 0.9864 0.1026
vn 0.2196 0.9743 -0.0501
vn -0.1761 -0.9743 0.1405
vn 0.0977 -0.9743 -0.2030
vn -0.1761 0.9743 0.1405
vn 0.0977 0.9743 -0.2030
vn -0.0000 -0.9743 0.2253
vn 0.0000 0.9743 0.2253
usemtl Water
s off
f 200//13 138//13 140//13 201//13
f 201//14 140//14 142//14 202//14
f 202//15 142//15 144//15 203//15
f 203//16 144//16 146//16 204//16
f 204//17 146//17 148//17 205//17
f 140//18 138//18 150//18 148//18 146//18 144//18 142//18
f 205//19 148//19 150//19 206//19
f 206//20 150//20 138//20 200//20
f 137//21 139//21 141//21 143//21 145//21 147//21 149//21
f 189//22 164//22 151//22 192//22
f 155//23 157//23 227//23 225//23
f 187//24 162//24 164//24 189//24
f 163//25 152//25 222//25 233//25
f 185//26 160//26 162//26 187//26
f 158//27 156//27 226//27 228//27
f 183//28 158//28 160//28 185//28
f 151//29 164//29 234//29 221//29
f 181//30 156//30 158//30 183//30
f 157//31 159//31 229//31 227//31
f 179//32 154//32 156//32 181//32
f 160//33 158//33 228//33 230//33
f 192//34 151//34 154//34 179//34
f 152//35 153//35 223//35 222//35
f 163//22 178//22 165//22 152//22
f 175//36 177//36 247//36 245//36
f 161//24 176//24 178//24 163//24
f 170//37 168//37 238//37 240//37
f 159//26 174//26 176//26 161//26
f 178//38 176//38 246//38 248//38
f 157//28 172//28 174//28 159//28
f 169//39 171//39 241//39 239//39
f 155//30 170//30 172//30 157//30
f 177//40 166//40 236//40 247//40
f 153//32 168//32 170//32 155//32
f 172//41 170//41 240//41 242//41
f 152//34 165//34 168//34 153//34
f 165//42 178//42 248//42 235//42
f 199//34 191//34 180//34 193//34
f 191//43 190//43 218//43 219//43
f 193//32 180//32 182//32 194//32
f 184//44 182//44 210//44 212//44
f 194//30 182//30 184//30 195//30
f 187//45 189//45 217//45 215//45
f 195//28 184//28 186//28 196//28
f 179//46 181//46 209//46 207//46
f 196//26 186//26 188//26 197//26
f 190//47 188//47 216//47 218//47
f 197//24 188//24 190//24 198//24
f 182//48 180//48 208//48 210//48
f 198//22 190//22 191//22 199//22
f 185//49 187//49 215//49 213//49
f 149//50 198//50 199//50 137//50
f 147//51 197//51 198//51 149//51
f 145//52 196//52 197//52 147//52
f 143//53 195//53 196//53 145//53
f 141//54 194//54 195//54 143//54
f 139//55 193//55 194//55 141//55
f 137//56 199//56 193//56 139//56
f 177//22 206//22 200//22 166//22
f 175//24 205//24 206//24 177//24
f 173//26 204//26 205//26 175//26
f 171//28 203//28 204//28 173//28
f 169//30 202//30 203//30 171//30
f 167//32 201//32 202//32 169//32
f 166//34 200//34 201//34 167//34
f 219//34 220//34 207//34 208//34
f 208//32 207//32 209//32 210//32
f 210//30 209//30 211//30 212//30
f 212//28 211//28 213//28 214//28
f 214//26 213//26 215//26 216//26
f 216//24 215//24 217//24 218//24
f 218//22 217//22 220//22 219//22
f 181//57 183//57 211//57 209//57
f 189//58 192//58 220//58 217//58
f 186//59 184//59 212//59 214//59
f 183//60 185//60 213//60 211//60
f 180//61 191//61 219//61 208//61
f 188//62 186//62 214//62 216//62
f 192//63 179//63 207//63 220//63
f 234//22 233//22 222//22 221//22
f 232//24 231//24 233//24 234//24
f 230//26 229//26 231//26 232//26
f 228//28 227//28 229//28 230//28
f 226//30 225//30 227//30 228//30
f 224//32 223//32 225//32 226//32
f 221//34 222//34 223//34 224//34
f 164//64 162//64 232//64 234//64
f 156//65 154//65 224//65 226//65
f 161//66 163//66 233//66 231//66
f 153//67 155//67 225//67 223//67
f 162//68 160//68 230//68 232//68
f 154//69 151//69 221//69 224//69
f 159//70 161//70 231//70 229//70
f 248//22 247//22 236//22 235//22
f 246//24 245//24 247//24 248//24
f 244//26 243//26 245//26 246//26
f 242//28 241//28 243//28 244//28
f 240//30 239//30 241//30 242//30
f 238//32 237//32 239//32 240//32
f 235//34 236//34 237//34 238//34
f 167//71 169//71 239//71 237//71
f 176//72 174//72 244//72 246//72
f 168//73 165//73 235//73 238//73
f 173//74 175//74 245//74 243//74
f 166//75 167//75 237//75 236//75
f 174//76 172//76 242//76 244//76
f 171//77 173//77 243//77 241//77
